<?xml version="1.0" encoding="UTF-8" standalone="no"?>
<svg xmlns:rdf="http://www.w3.org/1999/02/22-rdf-syntax-ns#" xmlns="http://www.w3.org/2000/svg" height="425.97" width="104.19" version="1.1" xmlns:cc="http://creativecommons.org/ns#" xmlns:dc="http://purl.org/dc/elements/1.1/" viewBox="0 0 104.18666 425.97415">
<defs>
<filter id="i">
<feGaussianBlur stdDeviation="2.75118"/>
</filter>
<filter id="f" y="-.06773" x="-.52577" width="2.0515" height="1.1355">
<feGaussianBlur stdDeviation="7.43272"/>
</filter>
<filter id="a" y="-.36" x="-.36" width="1.72" height="1.72">
<feGaussianBlur stdDeviation="4.69721"/>
</filter>
<filter id="g" y="-.0758" x="-.65395" width="2.3079" height="1.1516">
<feGaussianBlur stdDeviation="3.21979"/>
</filter>
<linearGradient id="e" gradientUnits="userSpaceOnUse" x2="0" gradientTransform="translate(-369.59,-53.325)" y1="142.97" y2="469.81">
<stop stop-color="#fff" offset="0"/>
<stop stop-color="#fff" stop-opacity="0" offset="1"/>
</linearGradient>
<linearGradient id="d" x2="467.73" gradientUnits="userSpaceOnUse" x1="397.92" gradientTransform="translate(-369.59,-53.325)">
<stop offset="0"/>
<stop stop-opacity="0" offset="1"/>
</linearGradient>
<linearGradient id="c" x2="514.71" gradientUnits="userSpaceOnUse" x1="383.42" gradientTransform="translate(-369.59,-53.325)">
<stop stop-color="#362e0f" stop-opacity=".84375" offset="0"/>
<stop stop-color="#dfdfb3" offset=".19906"/>
<stop stop-color="#ebe6b6" offset=".4254"/>
<stop stop-color="#e7dcaf" offset=".67241"/>
<stop stop-color="#ded2a6" stop-opacity="0" offset="1"/>
</linearGradient>
<linearGradient id="b" x2="471.61" gradientUnits="userSpaceOnUse" x1="427.9" gradientTransform="translate(-369.59,-53.325)">
<stop stop-color="#501616" offset="0"/>
<stop stop-color="#a02c2c" offset=".37104"/>
<stop stop-color="#800000" offset=".53624"/>
<stop stop-color="#2b0000" offset="1"/>
</linearGradient>
</defs>
<g transform="translate(-28.434 .00066031)">
<path d="m62.156 84.786c11.29-1.6031 25.042-1.8283 39.869 0.38312-0.45741-17.262-1.3471-35.831-1.71-53.919 0.1048-1.8489 1.2855-2.2465 1.5543-3.4744 0.0838-3.6216-0.0395-6.3248-0.13202-9.6175-0.0256-0.90903-1.508-1.47-1.464-2.1426 0.12461-2.5359-0.0965-5.5363-0.0965-5.5363-0.241-0.497-0.335-0.6385-0.523-1.1197-0.157-0.4003-0.136-1.1937-0.782-1.4868-7.974-2.3616-20.771-1.6528-31.439-0.6955-2.355 0.6238-3.448 2.0242-3.616 3.994l0.0586 4.67-1.5084 1.6415-0.095 10.42c0.55601 0.99036 1.2707 1.6633 1.3538 3.5995l-1.5575 53.221 0.0631 0.0631h0.0631-0.0316l-0.00003 0.00004z" fill="url(#b)"/>
<path d="m57.115 113.9c2.1762-2.451 3.7961-6.17 4.2469-10.237 1.0146-9.1551 0.75954-19.114 0.75954-19.114 10.47-2.2927 26.501-2.2006 39.89 0.07547-0.11824 34.849 6.6297 27.414 17.719 42.851 7.4974 10.077 12.707 22.555 12.89 35.264 0.0132 74.687-0.33074 147.69-0.31754 223.88-0.37967 6.1865-0.19202 13.236-2.1779 18.285-0.37648 0.95731-0.59431 1.9417-0.94206 2.8482-2.5365 6.6119-20.903 7.1874-32.879 7.2912l-31.562-0.10372s-23.872-0.11843-29.216-4.2411c-1.3608-1.0497-3.1712-6.7634-3.7716-9.2898-0.18757-0.78931-0.66834-0.59399-0.66834-0.59399l0.003-1.8748c-1.1987-79.742 0.26902-158.21 0.40353-237.32 2.6761-30.264 21.359-42.595 25.623-47.727h0.00021z" fill="#2b0000"/>
<path opacity=".5" d="m442.95 206.86c0 8.6473-7.01 15.657-15.657 15.657-8.6473 0-15.657-7.01-15.657-15.657 0-8.6473 7.01-15.657 15.657-15.657 8.6473 0 15.657 7.01 15.657 15.657z" transform="matrix(.4186 0 0 .4186 -104.98 20.397)" filter="url(#a)" fill="#fff"/>
<path opacity=".5" filter="url(#a)" d="m73.868 144.45c0 8.6473-7.01 15.657-15.657 15.657-8.6473 0-15.657-7.01-15.657-15.657 0-8.6473 7.01-15.657 15.657-15.657 8.6473 0 15.657 7.01 15.657 15.657z" fill="#fff"/>
<path opacity=".6" d="m439.36 61.454c3.7603-0.52101 7.5206-0.55025 11.281 0l0.53571 96.563c-3.5836 2.91-7.643 4.1486-11.817 4.9859v-101.56z" fill-opacity=".90333" transform="matrix(.93059 0 0 1 -339.57 -53.325)" filter="url(#g)" fill="#ffe1cc"/>
<path filter="url(#i)" d="m55.18 131.57c10.651 1.7605 14.557 5.4811 20.496 10.607v254.14l35.617 0.50508-20-280.15-8.5863-11.364c-4.0879 2.631-9.4333 4.0056-14.661 4.1389-5.879 0.14997-25.275 21.885-32.058 43.591 3.5215 17.73 10.844-16.439 19.193-21.466z" fill="#2b0000"/>
<path d="m132.62 190.74c0.0132 74.687-0.20447 46.076-0.19127 122.27-5.1703 0.83057-73.927 3.596-101.7-1.6158-0.21623-31.099-0.21233-75.215 0.67017-121.79 20.674-1.2548 64.008-1.0896 101.22 1.1287z" fill="url(#c)"/>
<path stroke="#000" d="m31.482 195.47c32.734-0.95875 66.542-1.8841 100.36 0.35715" fill="none"/>
<path stroke="#000" d="m30.768 305.47c32.812 2.8399 66.713 3.2295 101.43 1.7857" fill="none"/>
<path opacity=".5" d="m55.559 135.26c10.189 2.381 19.16 5.4193 24.643 10.826v252.55h-33.929v-241.32c2.1506-9.4356 5-15.773 9.2857-22.064z" filter="url(#f)" stroke="url(#d)" stroke-width=".2" fill="url(#e)"/>
<path opacity=".5" d="m63.937 13.814c11.909-0.63671 23.96-0.70935 36.205 0v1.9197c-12.23-0.8069-24.312-0.8761-36.205 0v-1.9197z" fill="#500"/>
<path opacity=".4" d="m62.264 27.898c13.267-1.6932 29.333-1.017 39.598 0-0.0906 0.43889-1.4482 1.8757-1.4743 2.8036-11.707-1.5348-24.504-1.7491-36.808 0-0.0277-1.2998-0.80037-1.9374-1.3159-2.8036z" fill="#500"/>
</g>
</svg>
